<svg width="16" height="17" viewBox="0 0 16 17" fill="none" xmlns="http://www.w3.org/2000/svg">
<g clip-path="url(#clip0_6_4)">
<path d="M4.66666 16.5C4.57892 16.5005 4.49194 16.4837 4.41072 16.4505C4.32949 16.4173 4.25562 16.3684 4.19332 16.3066C4.13084 16.2447 4.08124 16.1709 4.0474 16.0897C4.01355 16.0085 3.99612 15.9213 3.99612 15.8333C3.99612 15.7453 4.01355 15.6582 4.0474 15.5769C4.08124 15.4957 4.13084 15.422 4.19332 15.36L9.63999 9.91331C10.0145 9.53831 10.2249 9.02998 10.2249 8.49998C10.2249 7.96998 10.0145 7.46165 9.63999 7.08665L4.19332 1.63998C4.06779 1.51445 3.99726 1.34418 3.99726 1.16665C3.99726 0.989113 4.06779 0.81885 4.19332 0.693314C4.31886 0.567779 4.48912 0.497253 4.66666 0.497253C4.84419 0.497253 5.01445 0.567779 5.13999 0.693314L10.5867 6.13998C10.8971 6.44962 11.1434 6.81746 11.3114 7.22242C11.4794 7.62739 11.5659 8.06153 11.5659 8.49998C11.5659 8.93843 11.4794 9.37257 11.3114 9.77754C11.1434 10.1825 10.8971 10.5503 10.5867 10.86L5.13999 16.3066C5.0777 16.3684 5.00382 16.4173 4.92259 16.4505C4.84137 16.4837 4.75439 16.5005 4.66666 16.5Z" fill="white"/>
</g>
<defs>
<clipPath id="clip0_6_4">
<rect width="16" height="16" fill="white" transform="translate(0 0.5)"/>
</clipPath>
</defs>
</svg>
