<svg width="84" height="84" viewBox="0 0 84 84" fill="none" xmlns="http://www.w3.org/2000/svg">
<path d="M45.5 66.5L45.5 31.5L57.015 43.015C57.3404 43.343 57.7275 43.6034 58.154 43.7811C58.5805 43.9588 59.038 44.0503 59.5 44.0503C59.9621 44.0503 60.4195 43.9588 60.8461 43.7811C61.2726 43.6034 61.6597 43.343 61.985 43.015C62.6369 42.3592 63.0028 41.4722 63.0028 40.5475C63.0028 39.6229 62.6369 38.7358 61.985 38.08L46.935 23.065C45.6283 21.7504 43.8536 21.0078 42 21V21C40.1587 21.017 38.3982 21.759 37.1 23.065L22.05 38.08C21.726 38.4063 21.4694 38.7933 21.2949 39.2188C21.1204 39.6443 21.0315 40.1 21.0331 40.5599C21.0347 41.0198 21.1269 41.4748 21.3044 41.8991C21.4819 42.3233 21.7412 42.7085 22.0675 43.0325C22.3939 43.3565 22.7808 43.6131 23.2063 43.7876C23.6318 43.9621 24.0875 44.0511 24.5474 44.0494C25.0073 44.0478 25.4623 43.9556 25.8866 43.7781C26.3109 43.6006 26.696 43.3413 27.02 43.015L38.5 31.5L38.5 66.5C38.5 67.4283 38.8688 68.3185 39.5252 68.9749C40.1815 69.6313 41.0718 70 42 70C42.9283 70 43.8185 69.6313 44.4749 68.9749C45.1313 68.3185 45.5 67.4283 45.5 66.5Z" fill="white"/>
</svg>
