<svg width="30" height="30" viewBox="0 0 30 30" fill="none" xmlns="http://www.w3.org/2000/svg">
<path d="M19.6825 22.8175C19.6825 20.9425 18.3937 18.38 16.0575 15.6012C15.9282 15.4469 15.7663 15.3233 15.5834 15.2392C15.4005 15.1551 15.2013 15.1127 15 15.115C14.7972 15.114 14.5967 15.1573 14.4124 15.2417C14.228 15.3261 14.0643 15.4496 13.9325 15.6037C11.375 18.6 10.125 21.25 10.3412 23.2812C10.4263 23.9234 10.6466 24.5403 10.9874 25.0913C11.3283 25.6422 11.782 26.1146 12.3187 26.4775C13.078 27.1 14.019 27.4589 15 27.5C16.2415 27.4986 17.4317 27.0049 18.3096 26.127C19.1874 25.2492 19.6812 24.0589 19.6825 22.8175Z" fill="white"/>
<path d="M20.7862 3.62504C19.8037 2.79004 18.7725 1.91504 17.7225 0.960044C17.3244 0.598583 16.852 0.328509 16.3386 0.168729C15.8251 0.008948 15.2829 -0.0366783 14.75 0.0350437C14.2335 0.103452 13.7383 0.284443 13.2994 0.565233C12.8605 0.846022 12.4886 1.21976 12.21 1.66004C10.7205 4.14983 9.66701 6.87566 9.09499 9.72004C8.8712 9.39599 8.67229 9.05543 8.49999 8.70129C8.32307 8.32852 8.05662 8.00534 7.72443 7.76058C7.39224 7.51582 7.00463 7.35709 6.59618 7.29854C6.18773 7.24 5.77114 7.28346 5.38357 7.42506C4.996 7.56665 4.6495 7.80198 4.37499 8.11004C2.27912 10.253 1.11732 13.1389 1.14374 16.1363C1.11476 19.1981 2.11053 22.1816 3.97263 24.6123C5.83474 27.0429 8.45621 28.781 11.42 29.55C12.5548 29.8356 13.7198 29.9833 14.89 29.99C13.3947 29.9343 11.9574 29.3968 10.7925 28.4575C9.98551 27.8896 9.30696 27.1583 8.8009 26.3111C8.29483 25.4639 7.97256 24.5198 7.85499 23.54C7.56749 20.7775 8.97124 17.5613 12.0275 13.9813C12.3941 13.5515 12.8499 13.2067 13.3632 12.9707C13.8766 12.7348 14.4351 12.6134 15 12.615H15.0125C15.5758 12.6155 16.1322 12.7388 16.643 12.9762C17.1537 13.2137 17.6066 13.5597 17.97 13.99C19.8925 16.2738 22.1862 19.6588 22.1862 22.8163C22.1835 24.6359 21.4905 26.3868 20.2472 27.7154C19.004 29.0441 17.3029 29.8516 15.4875 29.975C19.0771 29.8594 22.4806 28.3509 24.9772 25.7692C27.4738 23.1874 28.8673 19.7352 28.8625 16.1438C28.8562 10.4813 25.1162 7.30629 20.7862 3.62504Z" fill="white"/>
</svg>
