<svg width="65" height="65" viewBox="0 0 65 65" fill="none" xmlns="http://www.w3.org/2000/svg">
<rect width="65" height="65" rx="7" fill="#46323B"/>
<path d="M33 47.9414C32.7659 47.9414 32.5318 47.8593 32.3441 47.695C30.8503 46.3879 29.4475 45.195 28.0909 44.0414C20.81 37.8498 16 33.7596 16 27.7881C16 22.4415 19.8119 18.0586 25.0312 18.0586C27.8444 18.0586 30.2886 19.4094 32.0995 21.9651C32.4561 22.4685 32.7543 22.9713 33 23.4386C33.2456 22.9713 33.5439 22.4685 33.9005 21.9651C35.7114 19.4094 38.1556 18.0586 40.9688 18.0586C46.1889 18.0586 50 22.4424 50 27.7881C50 33.7595 45.19 37.8498 37.9093 44.0412C36.5526 45.1949 35.1498 46.3878 33.656 47.695C33.4682 47.8593 33.2341 47.9414 33 47.9414ZM25.0312 20.0508C21.0183 20.0508 17.9922 23.3771 17.9922 27.7881C17.9922 32.8385 22.5231 36.6915 29.3814 42.5237C30.5435 43.5119 31.7394 44.5289 33 45.6238C34.2606 44.5288 35.4565 43.5118 36.6187 42.5235C43.477 36.6915 48.0078 32.8385 48.0078 27.7881C48.0078 23.3771 44.9817 20.0508 40.9688 20.0508C38.8157 20.0508 36.9953 21.0671 35.5582 23.0717C34.4247 24.6528 33.9646 26.2764 33.9601 26.2927C33.8401 26.7235 33.4474 27.0225 33.0003 27.0225C32.9996 27.0225 32.9989 27.0225 32.9983 27.0225C32.551 27.0216 32.159 26.7237 32.0399 26.2927C32.0354 26.2765 31.5752 24.6528 30.4417 23.0717C29.0047 21.0671 27.1843 20.0508 25.0312 20.0508Z" fill="#FA9E4D"/>
</svg>
