<svg width="27" height="27" viewBox="0 0 27 27" fill="none" xmlns="http://www.w3.org/2000/svg">
<g clip-path="url(#clip0_16_22)">
<path d="M13.5 2.24994C14.9923 2.25484 16.4688 2.55565 17.8441 3.13497C19.2194 3.71428 20.4662 4.5606 21.5122 5.62494H18C17.7016 5.62494 17.4155 5.74347 17.2045 5.95445C16.9935 6.16543 16.875 6.45158 16.875 6.74994C16.875 7.04831 16.9935 7.33446 17.2045 7.54544C17.4155 7.75642 17.7016 7.87494 18 7.87494H22.6609C23.2148 7.87465 23.746 7.65445 24.1378 7.26272C24.5295 6.871 24.7497 6.3398 24.75 5.78582V1.12494C24.75 0.826576 24.6315 0.540428 24.4205 0.329449C24.2095 0.118471 23.9234 -5.57512e-05 23.625 -5.57512e-05V-5.57512e-05C23.3266 -5.57512e-05 23.0405 0.118471 22.8295 0.329449C22.6185 0.540428 22.5 0.826576 22.5 1.12494V3.46269C20.6405 1.78808 18.3516 0.664155 15.8896 0.216787C13.4275 -0.230581 10.8896 0.0162702 8.55987 0.929698C6.23017 1.84313 4.20075 3.38706 2.69887 5.38861C1.19699 7.39016 0.281956 9.77028 0.0562337 12.2624C0.0417025 12.4191 0.0599639 12.5771 0.109854 12.7263C0.159745 12.8755 0.240171 13.0127 0.346007 13.1291C0.451844 13.2455 0.58077 13.3386 0.724572 13.4025C0.868373 13.4663 1.0239 13.4995 1.18123 13.4999V13.4999C1.4564 13.5035 1.72296 13.4041 1.92875 13.2214C2.13454 13.0388 2.26474 12.7858 2.29386 12.5122C2.5443 9.71179 3.83283 7.10623 5.90632 5.20739C7.97982 3.30854 10.6884 2.25365 13.5 2.24994Z" fill="white"/>
<path d="M25.8199 13.5C25.5447 13.4965 25.2781 13.5958 25.0724 13.7785C24.8666 13.9612 24.7364 14.2141 24.7072 14.4877C24.5213 16.6289 23.725 18.6717 22.413 20.3739C21.1009 22.0762 19.3281 23.3663 17.3049 24.0913C15.2817 24.8164 13.093 24.9458 10.9984 24.4643C8.90382 23.9829 6.99131 22.9107 5.48775 21.375H9C9.29837 21.375 9.58452 21.2564 9.7955 21.0455C10.0065 20.8345 10.125 20.5483 10.125 20.25C10.125 19.9516 10.0065 19.6654 9.7955 19.4545C9.58452 19.2435 9.29837 19.125 9 19.125H4.33913C4.06474 19.1248 3.79301 19.1788 3.53948 19.2837C3.28595 19.3886 3.05558 19.5425 2.86156 19.7365C2.66754 19.9306 2.51366 20.1609 2.40872 20.4144C2.30379 20.668 2.24985 20.9397 2.25 21.2141V25.875C2.25 26.1733 2.36853 26.4595 2.57951 26.6705C2.79048 26.8814 3.07663 27 3.375 27C3.67337 27 3.95952 26.8814 4.1705 26.6705C4.38147 26.4595 4.5 26.1733 4.5 25.875V23.5372C6.35943 25.2118 8.64834 26.3358 11.1104 26.7831C13.5724 27.2305 16.1104 26.9836 18.4401 26.0702C20.7698 25.1568 22.7992 23.6128 24.3011 21.6113C25.803 19.6098 26.718 17.2296 26.9438 14.7375C26.9583 14.5808 26.94 14.4228 26.8901 14.2736C26.8402 14.1244 26.7598 13.9872 26.654 13.8708C26.5481 13.7544 26.4192 13.6613 26.2754 13.5974C26.1316 13.5336 25.9761 13.5004 25.8188 13.5H25.8199Z" fill="white"/>
</g>
<defs>
<clipPath id="clip0_16_22">
<rect width="27" height="27" fill="white"/>
</clipPath>
</defs>
</svg>
