<svg xmlns="http://www.w3.org/2000/svg" xmlns:xlink="http://www.w3.org/1999/xlink" xmlns:svgjs="http://svgjs.com/svgjs" version="1.1" width="512" height="512" x="0" y="0" viewBox="0 0 100 100" style="enable-background:new 0 0 512 512" xml:space="preserve"><g><g xmlns="http://www.w3.org/2000/svg"><path d="m85 71.5v-44.52c0-3.85-3.13-6.98-6.98-6.98h-39.04c-3.85 0-6.98 3.13-6.98 6.98v12.02h-10.52c-3.57 0-6.48 2.91-6.48 6.48v26.02c0 5.79 4.71 10.5 10.5 10.5h49c5.79 0 10.5-4.71 10.5-10.5zm-53 0c0 3.58-2.92 6.5-6.5 6.5s-6.5-2.92-6.5-6.5v-26.02c0-1.37 1.11-2.48 2.48-2.48h10.52zm4 0v-44.52c0-1.64 1.34-2.98 2.98-2.98h39.04c1.64 0 2.98 1.34 2.98 2.98v44.52c0 3.58-2.92 6.5-6.5 6.5h-40.76c1.42-1.79 2.26-4.05 2.26-6.5z" fill="#000000" data-original="#000000"/><path d="m71 32h-25c-1.1 0-2 .9-2 2v12c0 1.1.9 2 2 2h25c1.1 0 2-.9 2-2v-12c0-1.1-.9-2-2-2zm-2 12h-21v-8h21z" fill="#000000" data-original="#000000"/><path d="m71 53h-25c-1.1 0-2 .9-2 2s.9 2 2 2h25c1.1 0 2-.9 2-2s-.9-2-2-2z" fill="#000000" data-original="#000000"/><path d="m71 62h-25c-1.1 0-2 .9-2 2s.9 2 2 2h25c1.1 0 2-.9 2-2s-.9-2-2-2z" fill="#000000" data-original="#000000"/></g></g></svg>