<svg width="35" height="35" viewBox="0 0 35 35" fill="none" xmlns="http://www.w3.org/2000/svg">
<path d="M29.75 25.025V9.443C29.75 8.0955 28.6545 7 27.307 7H13.643C12.2955 7 11.2 8.0955 11.2 9.443V13.65H7.518C6.2685 13.65 5.25 14.6685 5.25 15.918V25.025C5.25 27.0515 6.8985 28.7 8.925 28.7H26.075C28.1015 28.7 29.75 27.0515 29.75 25.025ZM11.2 25.025C11.2 26.278 10.178 27.3 8.925 27.3C7.672 27.3 6.65 26.278 6.65 25.025V15.918C6.65 15.4385 7.0385 15.05 7.518 15.05H11.2V25.025ZM12.6 25.025V9.443C12.6 8.869 13.069 8.4 13.643 8.4H27.307C27.881 8.4 28.35 8.869 28.35 9.443V25.025C28.35 26.278 27.328 27.3 26.075 27.3H11.809C12.306 26.6735 12.6 25.8825 12.6 25.025Z" fill="white"/>
<path d="M24.85 11.2H16.1C15.715 11.2 15.4 11.515 15.4 11.9V16.1C15.4 16.485 15.715 16.8 16.1 16.8H24.85C25.235 16.8 25.55 16.485 25.55 16.1V11.9C25.55 11.515 25.235 11.2 24.85 11.2ZM24.15 15.4H16.8V12.6H24.15V15.4Z" fill="white"/>
<path d="M24.85 18.55H16.1C15.715 18.55 15.4 18.865 15.4 19.25C15.4 19.635 15.715 19.95 16.1 19.95H24.85C25.235 19.95 25.55 19.635 25.55 19.25C25.55 18.865 25.235 18.55 24.85 18.55Z" fill="white"/>
<path d="M24.85 21.7H16.1C15.715 21.7 15.4 22.015 15.4 22.4C15.4 22.785 15.715 23.1 16.1 23.1H24.85C25.235 23.1 25.55 22.785 25.55 22.4C25.55 22.015 25.235 21.7 24.85 21.7Z" fill="white"/>
</svg>
