<svg width="166" height="166" viewBox="0 0 166 166" fill="none" xmlns="http://www.w3.org/2000/svg">
<g clip-path="url(#clip0_16_5)">
<path d="M151.157 47.4666C129.231 11.4441 96.2024 36.5054 96.2024 36.5054C94.0603 38.1244 90.1104 39.4554 87.4266 39.4616L78.5796 39.4678C75.8958 39.4709 71.9459 38.1398 69.8069 36.5209C69.8069 36.5209 36.7747 11.4534 14.8461 47.4759C-7.07634 83.486 1.75826 122.703 1.75826 122.703C3.30601 132.305 8.40742 138.713 18.0345 137.908C27.6336 137.106 48.4695 112.048 48.4695 112.048C50.1907 109.984 53.7969 108.297 56.4745 108.297L109.513 108.287C112.194 108.287 115.797 109.974 117.515 112.039C117.515 112.039 138.354 137.097 147.969 137.899C157.583 138.704 162.697 132.29 164.236 122.694C164.232 122.694 173.083 83.4829 151.157 47.4666ZM63.068 76.7873H51.6951V87.7485C51.6951 87.7485 49.2868 89.5873 45.5598 89.5408C41.839 89.4851 40.155 87.5349 40.155 87.5349V76.7904H29.4136C29.4136 76.7904 28.0732 75.416 27.7141 71.7974C27.3612 68.1787 29.1969 65.2534 29.1969 65.2534H40.5729V53.8805C40.5729 53.8805 42.9131 52.6268 46.2779 52.7228C49.6458 52.828 52.113 54.0941 52.113 54.0941L52.0665 65.2503H62.808C62.808 65.2503 64.6838 67.6587 64.8386 70.5684C64.9934 73.4813 63.068 76.7873 63.068 76.7873ZM115.234 89.2808C110.253 89.2808 106.238 85.2536 106.238 80.2791C106.238 75.2953 110.253 71.2773 115.234 71.2773C120.193 71.2773 124.238 75.2953 124.238 80.2791C124.238 85.2566 120.193 89.2808 115.234 89.2808ZM115.234 64.5136C110.253 64.5136 106.238 60.4894 106.238 55.515C106.238 50.5312 110.253 46.5132 115.234 46.5132C120.193 46.5132 124.238 50.5312 124.238 55.515C124.238 60.4925 120.193 64.5136 115.234 64.5136ZM137.651 77.8088C132.671 77.8088 128.656 73.7847 128.656 68.8071C128.656 63.8264 132.671 59.8053 137.651 59.8053C142.61 59.8053 146.656 63.8264 146.656 68.8071C146.656 73.7847 142.61 77.8088 137.651 77.8088Z" fill="white"/>
</g>
<defs>
<clipPath id="clip0_16_5">
<rect width="166" height="166" fill="white"/>
</clipPath>
</defs>
</svg>
