<svg width="57" height="57" viewBox="0 0 57 57" fill="none" xmlns="http://www.w3.org/2000/svg">
<g clip-path="url(#clip0_6_11)">
<path d="M51.9033 16.2988C44.3747 3.92961 33.0333 12.535 33.0333 12.535C32.2978 13.0909 30.9415 13.5479 30.02 13.5501L26.9822 13.5522C26.0606 13.5533 24.7043 13.0962 23.9699 12.5403C23.9699 12.5403 12.6275 3.9328 5.09776 16.302C-2.42982 28.6669 0.603742 42.133 0.603742 42.133C1.1352 45.4301 2.88689 47.6304 6.19256 47.354C9.48867 47.0787 16.6432 38.4744 16.6432 38.4744C17.2341 37.7655 18.4724 37.1862 19.3919 37.1862L37.6039 37.183C38.5244 37.183 39.7616 37.7623 40.3515 38.4712C40.3515 38.4712 47.5071 47.0755 50.8085 47.3508C54.1099 47.6272 55.8659 45.4248 56.3941 42.1298C56.3931 42.1298 59.432 28.6658 51.9033 16.2988ZM21.6559 26.3667H17.7507V30.1305C17.7507 30.1305 16.9238 30.7619 15.644 30.7459C14.3664 30.7268 13.7882 30.0572 13.7882 30.0572V26.3678H10.0998C10.0998 26.3678 9.6396 25.8959 9.5163 24.6533C9.39513 23.4108 10.0254 22.4063 10.0254 22.4063H13.9317V18.5011C13.9317 18.5011 14.7352 18.0707 15.8906 18.1036C17.0471 18.1397 17.8942 18.5745 17.8942 18.5745L17.8783 22.4052H21.5666C21.5666 22.4052 22.2107 23.2322 22.2639 24.2313C22.317 25.2315 21.6559 26.3667 21.6559 26.3667ZM39.5682 30.6567C37.8579 30.6567 36.4793 29.2738 36.4793 27.5657C36.4793 25.8544 37.8579 24.4747 39.5682 24.4747C41.271 24.4747 42.6602 25.8544 42.6602 27.5657C42.6602 29.2749 41.271 30.6567 39.5682 30.6567ZM39.5682 22.1523C37.8579 22.1523 36.4793 20.7705 36.4793 19.0624C36.4793 17.3511 37.8579 15.9714 39.5682 15.9714C41.271 15.9714 42.6602 17.3511 42.6602 19.0624C42.6602 20.7715 41.271 22.1523 39.5682 22.1523ZM47.2658 26.7175C45.5556 26.7175 44.177 25.3357 44.177 23.6265C44.177 21.9163 45.5556 20.5356 47.2658 20.5356C48.9686 20.5356 50.3578 21.9163 50.3578 23.6265C50.3578 25.3357 48.9686 26.7175 47.2658 26.7175Z" fill="#4E60FF"/>
</g>
<defs>
<clipPath id="clip0_6_11">
<rect width="57" height="57" fill="white"/>
</clipPath>
</defs>
</svg>
